<svg xmlns="http://www.w3.org/2000/svg" viewBox="0 0 8920.57 3208.06">
  <path fill="#9e9e9e" d="M7571.89 396.32c-132.85,-176.29 -340.59,-270.42 -569.07,-280.11 -230.86,-9.78 -482.7,66.34 -700.78,230.69 -218.11,164.36 -360.7,385.44 -414.91,610 -53.67,222.35 -20.46,448.01 112.38,624.27 132.84,176.29 340.59,270.42 569.07,280.11 230.83,9.78 482.64,-66.32 700.7,-230.63l0.08 -0.06c218.11,-164.37 360.7,-385.45 414.91,-610 53.66,-222.32 20.46,-447.94 -112.33,-624.19l-0.05 -0.08zm-1239.71 486.37l161.37 -112.96 198.49 282.4c33.89,45.18 59.71,93.6 79.07,146.85 11.3,40.34 8.07,83.91 -8.07,122.64 -20.97,48.41 -54.86,88.76 -100.05,117.8 -53.25,37.11 -98.43,58.09 -137.17,64.55 -37.11,6.46 -75.84,0 -111.34,-16.14 -38.73,-19.36 -72.62,-46.79 -98.44,-82.3l138.78 -129.1c11.3,17.75 25.82,33.89 41.96,46.8 11.3,8.07 24.2,12.91 38.73,12.91 11.3,0 22.6,-4.84 30.67,-11.3 16.14,-9.68 27.44,-29.04 25.82,-48.41 -4.85,-27.44 -16.14,-54.86 -33.89,-75.84l-225.93 -317.9 0 0zm484.11 179.12l146.85 -116.18c16.14,19.36 37.11,33.89 59.71,41.96 32.27,9.68 66.16,3.23 93.6,-17.75 19.36,-12.91 35.49,-30.67 41.96,-53.25 9.68,-29.05 -6.46,-61.32 -35.5,-71.01 -4.85,-1.61 -9.68,-3.22 -14.52,-3.22 -19.37,-1.62 -53.25,6.45 -103.28,27.43 -82.31,33.9 -146.85,46.8 -195.26,41.96 -46.8,-4.85 -90.36,-29.05 -116.18,-69.39 -19.37,-27.44 -29.05,-59.71 -30.67,-91.98 0,-37.12 9.68,-74.23 30.67,-104.89 30.66,-43.56 67.78,-80.68 112.96,-109.73 67.78,-46.79 127.48,-69.38 179.11,-69.38 51.64,0 100.05,24.2 145.24,74.23l-145.24 114.57c-29.04,-37.11 -83.91,-45.18 -121.02,-16.14l-4.85 4.85c-16.14,9.68 -27.44,24.2 -33.89,41.96 -4.85,12.91 -1.62,27.44 6.45,38.73 6.45,8.07 16.14,14.52 27.44,14.52 12.91,1.62 35.5,-4.84 67.78,-19.37 80.68,-33.89 142,-53.25 183.96,-59.71 35.5,-6.45 72.62,-3.22 106.5,11.3 30.67,12.91 56.49,35.5 74.23,62.94 22.6,32.27 35.5,71 37.12,111.34 1.62,41.96 -9.68,82.31 -32.27,117.8 -29.05,43.57 -66.16,80.69 -109.73,109.73 -88.76,61.32 -161.37,87.14 -219.46,77.46 -62.93,-9.68 -114.58,-41.96 -151.69,-88.75l0 0zm-2210.78 -71l424.41 -27.44c9.68,69.38 27.44,121.02 56.48,158.14 46.8,58.09 111.35,87.13 196.87,87.13 62.93,0 112.95,-14.52 146.84,-45.18 32.27,-24.2 51.64,-62.93 51.64,-103.28 0,-38.73 -17.75,-75.84 -48.41,-100.05 -32.28,-29.04 -108.13,-58.09 -227.53,-83.91 -195.26,-43.57 -335.66,-101.66 -417.95,-175.89 -82.3,-69.39 -129.1,-171.06 -125.87,-279.17 0,-74.23 22.59,-148.46 64.55,-209.78 48.42,-69.39 114.58,-124.25 193.64,-154.92 85.53,-37.11 204.94,-56.48 355.02,-56.48 183.96,0 324.36,33.89 421.18,103.28 96.83,67.78 154.92,177.51 172.67,327.58l-419.57 24.2c-11.29,-64.55 -33.89,-111.34 -71,-142 -37.12,-30.66 -85.53,-45.18 -148.47,-45.18 -51.63,0 -90.36,11.29 -116.18,32.27 -24.2,19.36 -40.34,48.41 -38.73,80.68 0,24.2 12.91,46.8 32.27,61.32 20.97,19.37 71.01,37.11 150.07,53.25 195.26,41.96 334.04,83.91 419.57,127.48 85.53,43.56 146.84,96.82 183.96,159.76 3.64,6.07 6.4,12.46 8.4,19.1 75.29,-188.42 208.91,-366.95 393.84,-506.3 230.32,-173.56 497.06,-253.93 742.12,-243.54 246.53,10.45 471.31,112.42 616.36,303.44l1.63 2.13c145,192.43 181.56,437.52 123.46,678.22 -57.39,237.76 -207.4,471.33 -436.49,644.7l-2.12 1.62c-20.37,15.35 -41.04,29.96 -61.93,43.85 159.62,24.21 288.17,84.72 384.96,181.51 65.1,65.09 114.17,143.31 146.85,234.66l0 -402.48 1.62 0 445.38 0 0 1087.64 695.51 0 0 355.02 -1142.51 0 0 -404.28c-10.65,30.63 -23.03,59.41 -37.11,86.38 -54.87,106.5 -140.4,193.64 -245.28,251.74 -108.12,59.71 -242.05,90.36 -401.81,90.36 -162.99,0 -296.92,-25.82 -403.43,-77.46 -109.73,-54.86 -200.1,-140.39 -259.8,-245.28 -66.16,-112.96 -100.05,-253.35 -100.05,-422.79l0 0c0,-228.74 62.37,-408.81 185.63,-538.73 -227.71,-21.39 -432.94,-122.78 -568.13,-302.17 -73.43,-97.44 -119.04,-208.39 -138.64,-325.43 -49.67,59.53 -112.52,106.32 -184.06,136.8 -91.98,40.34 -208.17,61.31 -346.95,61.31 -245.28,0 -414.72,-46.79 -509.93,-142 -95.21,-95.2 -151.68,-214.63 -162.98,-359.85zm-166.21 1124.72c32.43,-78.65 77.65,-147.01 135.55,-204.91 130.71,-130.71 314.67,-196.87 548.66,-196.87 240.44,0 424.4,64.55 555.11,193.64 130.71,129.1 195.26,309.83 195.26,542.21 0,169.44 -29.05,306.6 -85.53,414.72 -54.87,106.5 -140.4,193.64 -245.28,251.74 -108.12,59.71 -242.06,90.36 -401.82,90.36 -162.98,0 -296.91,-25.82 -403.42,-77.46 -109.73,-54.86 -200.1,-140.39 -259.8,-245.28 -14.46,-24.68 -27.37,-50.67 -38.73,-77.98l0 376.52 -448.61 0 0 -584.16 -487.34 0 0 584.16 -445.39 0 0 -1442.65 0 0 445.39 0 0 505.09 487.34 0 0 -505.09 448.61 0 0 375.96zm384.06 346.97c0,145.24 27.44,250.13 80.69,314.67 53.25,62.93 127.48,95.21 221.07,95.21 95.21,0 169.44,-30.66 222.69,-93.6 53.25,-62.93 79.07,-174.28 79.07,-335.65 0,-135.55 -27.44,-235.6 -82.31,-296.92 -54.86,-62.94 -129.09,-93.6 -222.69,-93.6 -82.3,-3.23 -161.36,32.27 -216.23,95.21 -54.86,62.93 -82.3,167.82 -82.3,314.67l0 -0.01zm1952.59 0c0,145.24 27.44,250.13 80.68,314.67 53.25,62.93 127.48,95.21 221.08,95.21 95.21,0 169.44,-30.66 222.69,-93.6 53.25,-62.93 79.07,-174.28 79.07,-335.65 0,-135.55 -27.44,-235.6 -82.3,-296.92 -54.87,-62.94 -129.1,-93.6 -222.69,-93.6 -82.3,-3.23 -162.99,32.27 -216.23,95.21 -54.87,62.93 -82.3,167.82 -82.3,314.67l0 -0.01zm-4629.72 129.1l390.52 117.8c-20.97,98.43 -64.55,192.03 -124.25,274.33 -54.87,72.62 -127.48,129.1 -209.78,166.21 -83.91,37.12 -190.42,56.49 -319.51,56.49 -156.53,0 -285.62,-22.6 -384.07,-67.78 -92.02,-41.56 -171.76,-113.16 -240.46,-213.54 -7.78,15.11 -16.39,29.84 -25.8,44.1 -53.25,79.07 -127.48,140.4 -214.63,177.51 -91.98,40.34 -208.17,61.32 -346.95,61.32 -245.28,0 -414.71,-46.8 -509.93,-142 -95.21,-96.83 -148.47,-216.23 -161.37,-361.47l0 -0.01 424.41 -27.44c9.68,69.38 27.44,121.02 56.48,158.14 45.19,58.09 111.35,88.76 196.87,88.76 62.93,0 112.96,-14.53 146.85,-45.19 32.27,-25.82 51.63,-62.93 51.63,-103.28 0,-38.73 -17.75,-75.84 -48.41,-100.05 -32.27,-29.04 -108.12,-58.09 -229.15,-83.91 -195.26,-43.57 -335.65,-101.66 -417.95,-175.89 -82.3,-69.39 -129.09,-171.06 -125.87,-279.17 0,-74.23 22.6,-148.46 64.55,-209.78 48.41,-69.39 114.57,-124.25 193.64,-154.92 85.53,-37.11 204.94,-56.48 355.02,-56.48 183.96,0 324.35,33.89 421.18,103.28 67.94,48.69 116.01,116.46 144.79,204.41 25.05,-42.65 54.77,-81.22 89.21,-115.66 127.48,-127.48 306.61,-192.04 538.98,-192.04 182.35,0 324.36,37.12 429.24,109.73 103.28,74.24 180.74,187.19 232.38,338.88l-393.75 87.14c-9.68,-33.89 -24.2,-67.78 -43.57,-96.83 -24.2,-33.89 -54.86,-59.71 -91.98,-79.07 -37.11,-19.37 -79.07,-27.44 -121.03,-27.44 -101.66,0 -179.11,40.34 -232.37,122.64 -40.34,59.71 -61.32,154.92 -61.32,284.02 0,159.76 24.2,269.49 72.62,329.2 48.41,59.71 116.18,88.76 204.94,88.76 85.52,0 150.07,-24.21 193.64,-71.01 43.56,-50.02 75.84,-119.42 95.21,-209.78l-0.01 0zm-1011.11 -210.77c5.16,-84.21 19.01,-160.84 41.66,-229.79l-336.04 19.38c-11.3,-64.55 -33.89,-111.34 -71.01,-142 -35.49,-30.66 -85.52,-45.18 -148.46,-43.56 -51.64,0 -90.36,11.29 -116.18,33.89 -25.82,19.36 -40.34,48.41 -38.73,80.68 0,24.2 12.91,46.8 32.27,61.32 20.97,19.36 71,37.11 150.07,53.25 195.26,41.96 334.04,83.91 419.56,127.48 24.23,12.35 46.51,25.46 66.85,39.35zm-1033.45 -912.37l0 -1442.65 743.92 0c137.17,0 243.67,11.29 316.29,35.49 71.01,22.6 133.94,69.39 175.89,132.33 46.8,69.39 69.39,150.07 67.78,233.98 4.85,142 -67.78,277.56 -192.03,348.56 -48.42,27.44 -101.66,46.79 -156.53,56.48 40.34,11.3 80.68,30.66 116.18,53.25 27.44,22.59 50.02,48.41 71.01,75.84 24.2,27.43 45.19,58.09 62.93,90.36l216.24 417.95 -506.7 0 -238.83 -443.77c-30.66,-56.48 -56.48,-93.59 -80.68,-111.34 -32.27,-22.6 -71.01,-33.89 -109.73,-33.89l-38.73 0 0 585.77 -447 0 0 1.62zm447 -858.5l188.81 0c40.34,-3.22 79.07,-9.68 117.8,-19.36 29.05,-4.85 54.86,-20.98 72.61,-45.19 43.57,-58.09 37.12,-140.39 -16.14,-190.41 -29.04,-24.2 -85.53,-37.12 -166.21,-37.12l-196.87 0 0 292.08z"/>
</svg>
